<?xml version="1.0" encoding="UTF-8" standalone="no"?>
<svg
   width="200mm"
   height="100mm"
   viewBox="0 -50 200 100"
   version="1.1"
   id="svg136"
   sodipodi:docname="pentominoes_0001.svg"
   inkscape:version="1.2.2 (732a01da63, 2022-12-09)"
   xmlns:inkscape="http://www.inkscape.org/namespaces/inkscape"
   xmlns:sodipodi="http://sodipodi.sourceforge.net/DTD/sodipodi-0.dtd"
   xmlns="http://www.w3.org/2000/svg"
   xmlns:svg="http://www.w3.org/2000/svg"
   xmlns:rdf="http://www.w3.org/1999/02/22-rdf-syntax-ns#"
   xmlns:cc="http://creativecommons.org/ns#"
   xmlns:dc="http://purl.org/dc/elements/1.1/">
  <defs
     id="defs140" />
  <sodipodi:namedview
     id="namedview138"
     pagecolor="#505050"
     bordercolor="#ffffff"
     borderopacity="1"
     inkscape:showpageshadow="0"
     inkscape:pageopacity="0"
     inkscape:pagecheckerboard="1"
     inkscape:deskcolor="#505050"
     inkscape:document-units="mm"
     showgrid="false"
     inkscape:zoom="0.48724397"
     inkscape:cx="582.87022"
     inkscape:cy="-26.680679"
     inkscape:window-width="1920"
     inkscape:window-height="1009"
     inkscape:window-x="-8"
     inkscape:window-y="-8"
     inkscape:window-maximized="1"
     inkscape:current-layer="svg136" />
  <title
     id="title132">OpenSCAD Model</title>
  <path
     d="m 176.00041,32.898598 h -10 v -10 h 10 v -10 h -20 v 30 h 20 z"
     id="path439"
     style="fill:none;stroke:#000000;stroke-opacity:1" />
  <path
     d="m 109.8933,32.898598 h 20 v -10 h -20 v -10 h -9.999991 v 30 h 9.999991 z"
     id="path437"
     style="fill:none;stroke:#000000;stroke-opacity:1" />
  <path
     d="m 86.952569,22.898598 h 10 v -10 h -20 v 20 h -10 v 10 h 20 z"
     id="path435"
     style="fill:none;stroke:#000000;stroke-opacity:1" />
  <path
     d="m 53.243179,32.898598 h 10 v -10 h 10 v -10 h -20 v 10 h -10 v 20 h 10 z"
     id="path433"
     style="fill:none;stroke:#000000;stroke-opacity:1" />
  <path
     d="m 169.85864,-12.940737 h 10 v -10 h -20 v 10 h -10 v 10 h 10 V 7.0592631 h 10 z"
     id="path431"
     style="fill:none;stroke:#000000;stroke-opacity:1" />
  <path
     d="m 135.83186,-2.940737 h 10 v -10 h -10 v -10 h -10 v 10 h -10 v 10 h 10 V 7.0592631 h 10 z"
     id="path429"
     style="fill:none;stroke:#000000;stroke-opacity:1" />
  <path
     d="m 78.956098,-12.940737 h 20 v -10 h -30 V 7.0592631 h 10 z"
     id="path427"
     style="fill:none;stroke:#000000;stroke-opacity:1" />
  <path
     d="m 40.451272,22.898598 h -10 v -10 h -10 v 30 h 20 z"
     id="path425"
     style="fill:none;stroke:#000000;stroke-opacity:1" />
  <path
     d="m 143.37706,22.898598 h 10 V 2.8985984 h -10 v 9.9999996 h -10 v 30 h 10 z"
     id="path423"
     style="fill:none;stroke:#000000;stroke-opacity:1" />
  <path
     d="m 111.89683,-22.940737 h 10 v -10 H 101.89684 V 7.0592631 h 9.99999 z"
     id="path421"
     style="fill:none;stroke:#000000;stroke-opacity:1" />
  <path
     d="m 55.789725,-2.940737 h 10 v -10 h -10 v -20 h -10 V 7.0592631 h 10 z"
     id="path419"
     style="fill:none;stroke:#000000;stroke-opacity:1" />
  <path
     d="m 42.038194,-42.940737 h -10 V 7.0592631 h 10 z"
     id="path134"
     style="fill:none;stroke:#000000;stroke-opacity:1" />
  <metadata
     id="metadata1011">
    <rdf:RDF>
      <cc:Work
         rdf:about="">
        <dc:title>OpenSCAD Model</dc:title>
      </cc:Work>
    </rdf:RDF>
  </metadata>
</svg>
